{"title":"Real Time With Bill Maher JUST OVERTIME 2014.01.24 mp4","uid":9521267,"size":107914665,"categoryP":"video","categoryS":"tv_shows","magnet":"?xt=urn:btih:695837afeefdc1d6ed5e65c335cd4493b694b04a&amp;dn=Real+Time+With+Bill+Maher+JUST+OVERTIME+2014.01.24+mp4&amp;tr=udp%3A%2F%2Ftracker.openbittorrent.com%3A80&amp;tr=udp%3A%2F%2Fopen.demonii.com%3A1337&amp;tr=udp%3A%2F%2Ftracker.coppersurfer.tk%3A6969&amp;tr=udp%3A%2F%2Fexodus.desync.com%3A6969","seeders":1,"leechers":0,"uploader":"xenoFLASH","files":1,"time":1390639450,"description":"Real.Time.With.Bill.Maher.JUST.OVERTIME.2014.01.24.mp4\nRegular Overtime\n\n\nVideo\nID                               : 1\nFormat                           : AVC\nFormat/Info                      : Advanced Video Codec\nFormat profile                   : &lt;a class=&quot;__cf_email__&quot; href=&quot;/cdn-cgi/l/email-protection&quot; data-cfemail=&quot;2e634f47406e621d001f&quot;&gt;[email&amp;#160;protected]&lt;/a&gt;&lt;script cf-hash='f9e31' type=&quot;text/javascript&quot;&gt;\n/* &lt;![CDATA[ */!function(){try{var t=&quot;currentScript&quot;in document?document.currentScript:function(){for(var t=document.getElementsByTagName(&quot;script&quot;),e=t.length;e--;)if(t[e].getAttribute(&quot;cf-hash&quot;))return t[e]}();if(t&amp;&amp;t.previousSibling){var e,r,n,i,c=t.previousSibling,a=c.getAttribute(&quot;data-cfemail&quot;);if(a){for(e=&quot;&quot;,r=parseInt(a.substr(0,2),16),n=2;a.length-n;n+=2)i=parseInt(a.substr(n,2),16)^r,e+=String.fromCharCode(i);e=document.createTextNode(e),c.parentNode.replaceChild(e,c)}}}catch(u){}}();/* ]]&gt; */&lt;/script&gt;\nFormat settings, CABAC           : No\nFormat settings, ReFrames        : 2 frames\nFormat settings, GOP             : M=2, N=24\nCodec ID                         : avc1\nCodec ID/Info                    : Advanced Video Coding\nDuration                         : 9mn 9s\nBit rate                         : 1 440 Kbps\nMaximum bit rate                 : 2 948 Kbps\nWidth                            : 864 pixels\nHeight                           : 486 pixels\nDisplay aspect ratio             : 16:9\nFrame rate mode                  : Constant\nFrame rate                       : 29.970 fps\nColor space                      : YUV\nChroma subsampling               : 4:2:0\nBit depth                        : 8 bits\nScan type                        : Progressive\nBits/(Pixel*Frame)               : 0.114\nStream size                      : 94.4 MiB (92%)\nEncoded date                     : UTC 2014-01-24 07:31:09\nTagged date                      : UTC 2014-01-24 07:31:15\nColor primaries                  : BT.709-5, BT.1361, IEC 61966-2-4, SMPTE RP177\nTransfer characteristics         : BT.709-5, BT.1361\nMatrix coefficients              : BT.709-5, BT.1361, IEC 61966-2-4 709, SMPTE RP177\n\nAudio\nID                               : 2\nFormat                           : AAC\nFormat/Info                      : Advanced Audio Codec\nFormat profile                   : LC\nCodec ID                         : 40\nDuration                         : 9mn 10s\nBit rate mode                    : Variable\nBit rate                         : 125 Kbps\nMaximum bit rate                 : 174 Kbps\nChannel(s)                       : 2 channels\nChannel positions                : Front: L R\nSampling rate                    : 44.1 KHz\nCompression mode                 : Lossy\nStream size                      : 8.22 MiB (8%)\nEncoded date                     : UTC 2014-01-24 07:31:14\nTagged date                      : UTC 2014-01-24 07:31:15","torrent":{"xt":"urn:btih:695837afeefdc1d6ed5e65c335cd4493b694b04a","amp;dn":"Real+Time+With+Bill+Maher+JUST+OVERTIME+2014.01.24+mp4","amp;tr":["udp%3A%2F%2Ftracker.openbittorrent.com%3A80","udp%3A%2F%2Fopen.demonii.com%3A1337","udp%3A%2F%2Ftracker.coppersurfer.tk%3A6969","udp%3A%2F%2Fexodus.desync.com%3A6969"],"infoHash":"695837afeefdc1d6ed5e65c335cd4493b694b04a","infoHashBuffer":{"type":"Buffer","data":[105,88,55,175,238,253,193,214,237,94,101,195,53,205,68,147,182,148,176,74]},"announce":[],"urlList":[]}}